<svg width="21" height="21" viewBox="0 0 21 21" fill="none" xmlns="http://www.w3.org/2000/svg">
<path d="M5.53191 10.0179C5.53191 12.7792 7.77821 15.0255 10.5396 15.0255C13.301 15.0255 15.5473 12.7792 15.5473 10.0179C15.5473 7.25648 13.301 5.01018 10.5396 5.01018C7.77821 5.01018 5.53191 7.25648 5.53191 10.0179ZM10.5396 7.01045C12.1978 7.01045 13.547 8.35963 13.547 10.0179C13.547 11.6761 12.1978 13.0253 10.5396 13.0253C8.88136 13.0253 7.53218 11.6761 7.53218 10.0179C7.53218 8.35963 8.88136 7.01045 10.5396 7.01045ZM9.53745 17.0188H11.5377V20.0192H9.53745V17.0188ZM9.53745 0.01651H11.5377V3.01691H9.53745V0.01651ZM0.53624 9.01772H3.53664V11.018H0.53624V9.01772ZM17.5385 9.01772H20.5389V11.018H17.5385V9.01772ZM2.75754 16.3817L4.87782 14.2594L6.29301 15.6736L4.17273 17.7959L2.75754 16.3817ZM14.7802 4.36109L16.9024 2.23881L18.3166 3.653L16.1943 5.77528L14.7802 4.36109ZM4.88082 5.77628L2.75854 3.654L4.17373 2.23981L6.29401 4.36209L4.88082 5.77628ZM18.3166 16.3827L16.9024 17.7969L14.7802 15.6746L16.1943 14.2604L18.3166 16.3827Z" fill="#083775"/>
</svg>
