<svg width="808" height="808" viewBox="0 0 808 808" fill="none" xmlns="http://www.w3.org/2000/svg">
<g clip-path="url(#clip0_847_344)" filter="url(#filter0_d_847_344)">
<path d="M404 0C297.913 0 196.172 42.1427 121.157 117.157C46.1427 192.172 4 293.913 4 400C4 506.087 46.1427 607.828 121.157 682.843C196.172 757.857 297.913 800 404 800C510.087 800 611.828 757.857 686.843 682.843C761.857 607.828 804 506.087 804 400C804 293.913 761.857 192.172 686.843 117.157C611.828 42.1427 510.087 0 404 0ZM509.433 726.1H506.333C504.005 726.232 501.674 725.885 499.484 725.083C497.294 724.28 495.292 723.038 493.6 721.433C492.036 719.781 490.818 717.833 490.017 715.704C489.216 713.574 488.847 711.307 488.933 709.033V662.167C489.133 646.6 489.267 630.833 489.267 614.967C489.212 603.364 487.518 591.828 484.233 580.7C481.122 569.451 474.852 559.329 466.167 551.533C489.4 549.29 512.239 544.012 534.1 535.833C552.541 528.821 569.221 517.852 582.967 503.7C596.533 489.467 606.633 472.267 612.467 453.5C619.562 430.517 622.938 406.548 622.467 382.5C622.597 365.709 619.659 349.036 613.8 333.3C607.846 317.44 598.843 302.9 587.3 290.5C589.792 284.246 591.602 277.742 592.7 271.1C593.8 264.433 594.367 257.7 594.367 250.967C594.367 242.3 593.367 233.633 591.367 225.2C589.55 216.55 587.087 208.049 584 199.767C582.821 199.307 581.565 199.08 580.3 199.1H576.633C568.967 199.167 561.433 200.433 554.167 202.8C546.162 205.136 538.332 208.032 530.733 211.467C523.177 214.854 515.82 218.671 508.7 222.9C501.533 227.133 495.2 231.2 489.6 234.967C433.524 219.338 374.242 219.338 318.167 234.967C311.913 230.786 305.555 226.762 299.1 222.9C291.879 218.636 284.397 214.828 276.7 211.5C269.122 207.952 261.261 205.042 253.2 202.8C246.077 200.447 238.635 199.199 231.133 199.1H227.467C226.213 199.082 224.967 199.309 223.8 199.767C220.669 208.06 218.107 216.558 216.133 225.2C214.333 233.667 213.467 242.3 213.433 250.967C213.433 257.7 214 264.433 215.133 271.1C216.233 277.733 218 284.233 220.467 290.5C208.953 302.916 199.984 317.468 194.067 333.333C188.176 349.064 185.205 365.737 185.3 382.533C184.834 406.453 188.118 430.297 195.033 453.2C201.067 471.967 211.133 489.2 224.5 503.733C238.333 517.8 255 528.733 273.367 535.867C295.133 544.2 317.933 549.533 341.133 551.733C334.656 557.604 329.517 564.801 326.067 572.833C322.784 580.778 320.543 589.114 319.4 597.633C307.169 603.489 293.793 606.563 280.233 606.633C267.64 607.137 255.212 603.636 244.733 596.633C234.681 589.184 226.169 579.856 219.667 569.167C216.757 564.677 213.503 560.419 209.933 556.433C206.168 552.242 202.016 548.413 197.533 545C193.115 541.698 188.271 539.007 183.133 537C178.078 534.784 172.619 533.637 167.1 533.633C165.767 533.667 164.433 533.8 163.1 533.967C161.279 533.961 159.465 534.185 157.7 534.633C156.149 535.039 154.682 535.716 153.367 536.633C152.769 536.963 152.269 537.445 151.917 538.03C151.566 538.616 151.376 539.284 151.367 539.967C151.507 541.571 151.997 543.125 152.804 544.519C153.61 545.912 154.712 547.112 156.033 548.033C159.133 550.5 161.7 552.4 163.767 553.733L164.767 554.433C169.2 557.867 173.467 561.567 177.5 565.533C181.233 568.8 184.6 572.5 187.5 576.533C190.5 580.5 193.1 584.733 195.2 589.233C197.633 593.7 200.2 598.833 202.9 604.667C209.167 620.467 220.3 633.833 234.7 642.833C249.8 650.933 266.733 654.967 283.9 654.533C289.7 654.533 295.533 654.2 301.3 653.533C307.033 652.6 312.733 651.633 318.467 650.5V708.6C318.57 710.943 318.179 713.281 317.317 715.462C316.455 717.642 315.143 719.617 313.466 721.256C311.79 722.895 309.786 724.162 307.586 724.974C305.386 725.785 303.04 726.124 300.7 725.967H298.633C220.901 700.855 154.689 648.816 111.919 579.22C69.149 509.625 52.6322 427.045 65.3427 346.353C78.0532 265.66 119.156 192.157 181.249 139.079C243.342 86.0006 322.346 56.8357 404.033 56.8357C485.721 56.8357 564.724 86.0006 626.818 139.079C688.911 192.157 730.013 265.66 742.724 346.353C755.434 427.045 738.918 509.625 696.148 579.22C653.378 648.816 587.165 700.855 509.433 725.967V726.1Z" fill="white"/>
</g>
<defs>
<filter id="filter0_d_847_344" x="0" y="0" width="808" height="808" filterUnits="userSpaceOnUse" color-interpolation-filters="sRGB">
<feFlood flood-opacity="0" result="BackgroundImageFix"/>
<feColorMatrix in="SourceAlpha" type="matrix" values="0 0 0 0 0 0 0 0 0 0 0 0 0 0 0 0 0 0 127 0" result="hardAlpha"/>
<feOffset dy="4"/>
<feGaussianBlur stdDeviation="2"/>
<feComposite in2="hardAlpha" operator="out"/>
<feColorMatrix type="matrix" values="0 0 0 0 0 0 0 0 0 0 0 0 0 0 0 0 0 0 0.25 0"/>
<feBlend mode="normal" in2="BackgroundImageFix" result="effect1_dropShadow_847_344"/>
<feBlend mode="normal" in="SourceGraphic" in2="effect1_dropShadow_847_344" result="shape"/>
</filter>
<clipPath id="clip0_847_344">
<rect width="800" height="800" fill="white" transform="translate(4)"/>
</clipPath>
</defs>
</svg>
