<svg width="78" height="78" viewBox="0 0 78 78" fill="none" xmlns="http://www.w3.org/2000/svg">
<path d="M72.2807 43.3304C69.6222 44.0365 66.8832 44.3939 64.1325 44.3936C55.7567 44.3936 47.891 41.1374 41.9828 35.2293C38.1031 31.3272 35.3138 26.4764 33.8931 21.1603C32.4724 15.8443 32.4698 10.2487 33.8856 4.93136C34.0624 4.26653 34.0613 3.56689 33.8823 2.90262C33.7034 2.23836 33.3529 1.63283 32.866 1.14678C32.3792 0.660725 31.7731 0.31124 31.1085 0.13338C30.444 -0.0444794 29.7443 -0.0444597 29.0798 0.133437C22.423 1.90739 16.3497 5.40066 11.4691 10.2628C-3.82304 25.555 -3.82304 50.4469 11.4691 65.7469C15.104 69.402 19.4276 72.2999 24.1898 74.273C28.9521 76.246 34.0583 77.255 39.2131 77.2415C44.3665 77.256 49.4716 76.2478 54.2326 74.2754C58.9936 72.303 63.3159 69.4055 66.9493 65.7508C71.8151 60.8693 75.31 54.7928 77.0826 48.1323C77.2587 47.4677 77.2572 46.7686 77.0783 46.1048C76.8995 45.441 76.5495 44.8358 76.0634 44.3496C75.5773 43.8635 74.972 43.5135 74.3082 43.3347C73.6444 43.1558 72.9453 43.1543 72.2807 43.3304V43.3304ZM61.406 60.2036C58.4988 63.1267 55.0409 65.4441 51.2321 67.0219C47.4234 68.5997 43.3396 69.4064 39.217 69.3954C35.0931 69.4056 31.008 68.5982 27.198 67.0198C23.388 65.4414 19.9288 63.1233 17.0203 60.1997C4.78812 47.9636 4.78812 28.0501 17.0203 15.814C19.3839 13.453 22.1128 11.4884 25.1018 9.99605C24.6643 15.6416 25.4508 21.315 27.4075 26.6287C29.3642 31.9423 32.4451 36.7709 36.4395 40.7844C40.4442 44.7913 45.2713 47.8807 50.5872 49.8389C55.903 51.7971 61.5808 52.5775 67.2278 52.126C65.7273 55.1099 63.7622 57.8364 61.406 60.2036V60.2036Z" fill="#083775"/>
</svg>
