<svg width="30" height="30" viewBox="0 0 30 30" fill="none" xmlns="http://www.w3.org/2000/svg">
<g clip-path="url(#clip0_768_548)">
<path d="M15 0C8.69695 0 3.58789 5.1098 3.58789 11.4121C3.58789 15.1532 7.60881 22.2557 10.8769 27.4107C13.0658 30.8631 16.9342 30.8631 19.1231 27.4107C22.3912 22.255 26.4121 15.1532 26.4121 11.4121C26.4121 5.10906 21.3031 0 15 0ZM15 16.7788C11.8659 16.7788 9.32467 14.2376 9.32467 11.1034C9.32467 7.9693 11.8659 5.4281 15 5.4281C18.1341 5.4281 20.6753 7.9693 20.6753 11.1034C20.6753 14.2376 18.1341 16.7788 15 16.7788Z" fill="white"/>
</g>
<defs>
<clipPath id="clip0_768_548">
<rect width="30" height="30" fill="white"/>
</clipPath>
</defs>
</svg>
