<svg width="794" height="1123" viewBox="0 0 794 1123" fill="none" xmlns="http://www.w3.org/2000/svg">
<g clip-path="url(#clip0_761_517)">
<g filter="url(#filter0_d_761_517)">
<path d="M620.924 627.682L613.717 620.887C569.651 656.348 545.566 692.333 539.136 719.135C535.935 732.474 536.915 744.502 543.348 752.737C549.972 761.216 561.094 764.111 574.512 761.855C593.721 758.625 609.82 748.938 625.109 734.443C640.316 720.025 654.955 700.621 671.213 677.639C687.667 654.381 695.101 628.623 693.606 606.833C692.362 588.699 684.81 572.838 670.702 564.208C671.522 563.754 672.352 563.294 673.193 562.829C690.607 553.194 712.367 541.154 730.26 524.63C752.438 504.15 769.196 476.365 765.631 437.08C764.335 422.791 754.836 411.599 741.608 403.437C728.367 395.267 710.768 389.702 691.635 386.7C653.437 380.706 607.531 384.696 574.775 400.459C538.641 417.847 502.809 443.491 477.273 471.678C451.951 499.63 435.746 531.247 441.561 560.286L441.582 560.389L441.607 560.492C443.471 568.116 447.059 574.099 452.346 578.147C457.612 582.18 464.089 583.928 471.092 583.974C484.88 584.063 501.68 577.578 519.005 566.951C553.851 545.578 593.363 505.873 619.766 459.563C620.258 458.7 620.73 457.799 621.035 456.974C621.171 456.607 621.415 455.891 621.467 455.029C621.505 454.383 621.514 451.743 618.976 450.211C616.857 448.933 614.809 449.66 614.441 449.791L614.434 449.794C613.764 450.031 613.223 450.36 612.901 450.569C612.213 451.017 611.489 451.61 610.816 452.198C608.108 454.565 603.604 459.188 598.161 464.91C595.152 468.075 591.811 471.623 588.244 475.411C578.707 485.54 567.552 497.389 556.773 508.227C539.149 525.95 518.256 545.462 499.887 556.127C490.639 561.497 482.736 564.196 476.589 563.92C473.632 563.787 471.116 562.969 468.945 561.43C466.842 559.937 464.812 557.587 463.05 553.971C459.941 539.405 466.554 520.112 482.297 498.994C498.056 477.855 522.268 455.861 552.017 436.65C589.99 412.129 639.346 401.793 678.439 403.211C698.011 403.922 714.522 407.564 725.592 413.445C736.599 419.292 741.25 426.673 740.166 435.151C734.025 483.201 707.229 513.068 681.819 532.366C669.523 541.705 657.62 548.516 648.479 553.747C648.15 553.936 647.824 554.123 647.501 554.307C642.96 556.907 638.926 559.235 636.093 561.272C634.687 562.282 633.293 563.418 632.244 564.681C631.262 565.864 629.901 567.987 630.299 570.724C630.589 572.727 631.849 573.952 632.759 574.557C633.602 575.116 634.455 575.375 634.978 575.508C636.051 575.78 637.283 575.885 638.308 575.949C639.23 576.006 640.293 576.044 641.378 576.083C641.579 576.09 641.781 576.097 641.983 576.105C643.311 576.153 644.723 576.211 646.203 576.311C652.327 576.727 658.682 577.844 663.118 581.1C667.033 583.974 670.323 589.176 668.94 600.183C667.514 611.538 661.12 628.478 645.818 653.453C625.587 685.652 609.327 709.431 595.292 724.393C581.493 739.104 571.218 743.833 562.433 742.017C559.426 739.636 557.653 735.373 559.119 727.211C560.717 718.318 566.057 705.993 576.153 689.83C584.455 676.54 596.052 661.098 606.465 647.234C611.796 640.137 616.816 633.453 620.924 627.682ZM639.867 571.163C639.866 571.163 639.875 571.149 639.896 571.121C639.879 571.149 639.868 571.163 639.867 571.163ZM618.349 458.955C618.366 458.944 618.362 458.947 618.339 458.962C618.343 458.959 618.346 458.957 618.349 458.955Z" fill="white" stroke="white" stroke-width="10"/>
<path d="M330.704 717.018C330.923 717.021 331.198 717.035 331.534 717.065C332.64 717.164 333.978 717.397 335.633 717.718C335.983 717.786 336.348 717.858 336.724 717.932C338.038 718.191 339.492 718.477 340.929 718.712C344.498 719.296 349.085 719.786 353.206 718.44C355.387 717.728 357.482 716.49 359.186 714.512C360.875 712.551 361.965 710.113 362.548 707.314C364.242 699.184 363.895 692.388 360.651 687.655C357.124 682.512 351.377 681.393 346.225 682.087C341.128 682.774 335.744 685.257 330.965 688.555C326.137 691.886 321.571 696.291 318.188 701.24L318.02 701.486L317.883 701.749C309.302 718.197 308.056 732.663 313.573 744.313C319.04 755.857 330.52 763.288 344.459 767.145C372.273 774.839 412.685 769.211 448.431 749.941C521.56 710.519 566.36 652.26 606.551 591.954C613.651 581.301 620.599 570.6 627.528 559.928C659.972 509.959 691.989 460.647 737.125 420.05L732.001 411.66C707.702 420.92 682.682 442.299 658.104 469.041C633.426 495.892 608.719 528.691 585.143 561.446C576.524 573.42 568.07 585.369 559.819 597.031C545.419 617.384 531.635 636.866 518.664 654.097C498.205 681.277 480.405 701.959 466.159 711.326C411.651 743.09 373.964 750.459 352.166 746.631C341.357 744.732 334.904 740.19 331.736 735.02C328.743 730.135 328.193 723.897 330.704 717.018Z" fill="white" stroke="white" stroke-width="10"/>
<path d="M60.2393 703.846L60.4106 703.675L60.5648 703.49C63.5825 699.85 64.8498 695.661 63.8044 691.421C62.826 687.452 60.0411 684.368 56.978 682.13C50.8597 677.659 41.627 675.051 33.0561 674.975C24.6588 674.9 15.0283 677.292 10.0465 685.069C4.92712 693.06 6.248 704.246 13.9937 718.034C30.0079 746.541 52.9794 762.907 79.9216 768.646C106.686 774.346 136.872 769.463 167.457 756.536C228.55 730.714 292.646 672.227 337.558 596.767C352.567 575.497 366.594 555.441 379.829 536.519C448.173 438.808 495.39 371.301 547.453 322.681C646.11 316.482 701.687 308.764 731.654 301.313C746.562 297.607 755.834 293.809 760.84 289.812C763.388 287.777 765.448 285.198 765.908 281.987C766.39 278.62 764.94 275.866 763.234 273.974C762.819 273.514 762.566 273.177 762.384 272.924L762.329 272.847C762.245 272.728 762.089 272.51 762.04 272.443L762.033 272.432C761.927 272.287 761.619 271.865 761.183 271.459C760.663 270.974 759.716 270.276 758.329 270.062C757.026 269.861 755.992 270.196 755.501 270.388C755.034 270.57 754.642 270.794 754.486 270.883L754.479 270.887C754.444 270.907 754.202 271.048 754.05 271.137L753.925 271.209C752.792 271.861 748.964 273.983 736.475 276.485C711.318 281.523 652.24 287.872 512.458 287.644C424.119 287.499 333.349 317.826 268.895 360.366C236.668 381.635 210.74 406.142 195.045 431.721C179.326 457.342 173.674 484.433 182.943 510.242C185.56 517.743 191.093 522.683 198.273 525.347C205.281 527.947 213.843 528.398 223.095 527.353C241.627 525.259 264.488 516.975 287.163 504.672C309.896 492.338 332.795 475.774 351.367 456.791C369.894 437.855 384.418 416.2 389.844 393.647L380.67 389.949C363.398 419.406 321.84 455.386 282.11 479.201C262.284 491.086 243.374 499.657 228.624 502.927C221.226 504.567 215.303 504.774 210.979 503.735C206.919 502.76 204.379 500.746 202.952 497.579C201.152 492.838 200.834 486.306 202.527 478.187C204.223 470.055 207.871 460.668 213.566 450.559C224.953 430.347 244.283 407.68 271.407 387.004C323.676 347.161 404.66 314.89 512.622 321.858C471.246 358.329 433.267 404.529 396.816 453.491C377.792 479.045 359.139 505.415 340.622 531.592L339.005 533.878C319.943 560.824 301.019 587.535 281.902 613.024C232.404 679.022 180.625 723.585 136.569 741.727C114.579 750.783 94.9255 753.092 78.5416 748.698C62.5917 744.42 49.0761 733.614 39.1834 714.971C39.7704 714.732 40.4913 714.474 41.3973 714.164C41.7141 714.055 42.0468 713.943 42.3938 713.826C47.0212 712.265 54.2001 709.844 60.2393 703.846Z" fill="white" stroke="white" stroke-width="10"/>
<path d="M12 833L782 833" stroke="white" stroke-width="36" stroke-linecap="round"/>
</g>
</g>
<defs>
<filter id="filter0_d_761_517" x="-10.5" y="265" width="815" height="609.5" filterUnits="userSpaceOnUse" color-interpolation-filters="sRGB">
<feFlood flood-opacity="0" result="BackgroundImageFix"/>
<feColorMatrix in="SourceAlpha" type="matrix" values="0 0 0 0 0 0 0 0 0 0 0 0 0 0 0 0 0 0 127 0" result="hardAlpha"/>
<feOffset dy="19"/>
<feGaussianBlur stdDeviation="2.25"/>
<feComposite in2="hardAlpha" operator="out"/>
<feColorMatrix type="matrix" values="0 0 0 0 0 0 0 0 0 0 0 0 0 0 0 0 0 0 0.25 0"/>
<feBlend mode="normal" in2="BackgroundImageFix" result="effect1_dropShadow_761_517"/>
<feBlend mode="normal" in="SourceGraphic" in2="effect1_dropShadow_761_517" result="shape"/>
</filter>
<clipPath id="clip0_761_517">
<rect width="793.701" height="1122.52" fill="white"/>
</clipPath>
</defs>
</svg>
