<svg width="794" height="1123" viewBox="0 0 794 1123" fill="none" xmlns="http://www.w3.org/2000/svg">
<g clip-path="url(#clip0_761_517)">
<g filter="url(#filter0_d_761_517)">
<path d="M618.481 625.942L615.597 623.224C571.796 658.472 548.267 693.935 542.053 719.835C538.952 732.76 540.086 743.689 545.712 750.89C551.415 758.19 561.227 761.046 574.014 758.897C592.464 755.795 608.043 746.489 623.045 732.265C638.015 718.073 652.505 698.89 668.764 675.907C684.885 653.12 692.053 628.034 690.613 607.038C689.28 587.6 680.506 571.433 664.398 564.287C666.782 562.946 669.277 561.565 671.86 560.136C689.271 550.498 710.627 538.677 728.225 522.426C749.915 502.396 766.102 475.469 762.643 437.351C761.464 424.357 752.817 413.878 740.032 405.99C727.243 398.099 710.065 392.628 691.17 389.663C653.408 383.738 608.15 387.727 576.076 403.162C540.24 420.407 504.736 445.831 479.496 473.693C454.342 501.46 438.979 532.113 444.503 559.697L444.511 559.738L444.521 559.779C446.258 566.884 449.533 572.215 454.17 575.765C458.798 579.309 464.592 580.931 471.112 580.974C484.064 581.058 500.281 574.916 517.436 564.394C551.825 543.301 590.99 503.977 617.159 458.077C617.633 457.246 618.005 456.519 618.222 455.933C618.324 455.657 618.447 455.27 618.472 454.851C618.491 454.519 618.479 453.415 617.426 452.78C616.536 452.243 615.654 452.544 615.438 452.621C615.093 452.743 614.779 452.927 614.536 453.085C614.029 453.414 613.434 453.894 612.79 454.457C610.208 456.713 605.807 461.224 600.335 466.978C597.344 470.123 594.016 473.658 590.457 477.437C580.913 487.574 569.71 499.473 558.901 510.343C541.288 528.054 520.145 547.834 501.394 558.721C491.992 564.18 483.475 567.232 476.455 566.917C472.991 566.762 469.904 565.788 467.209 563.876C464.546 561.987 462.162 559.105 460.194 554.955C456.621 539.042 463.874 518.688 479.892 497.201C495.911 475.713 520.413 453.488 550.389 434.13C588.961 409.221 638.948 398.776 678.547 400.213C698.358 400.932 715.373 404.619 727 410.795C738.601 416.959 744.446 425.329 743.142 435.531C736.865 484.641 709.438 515.157 683.634 534.755C671.18 544.214 659.131 551.109 649.996 556.336C649.657 556.53 649.323 556.721 648.992 556.91C644.405 559.537 640.524 561.781 637.844 563.708C636.508 564.668 635.358 565.628 634.552 566.597C633.774 567.535 633.052 568.807 633.267 570.293C633.397 571.185 633.958 571.751 634.419 572.058C634.854 572.346 635.332 572.503 635.715 572.6C636.492 572.797 637.477 572.891 638.494 572.954C639.373 573.009 640.39 573.045 641.477 573.084C641.68 573.092 641.886 573.099 642.093 573.107C643.427 573.156 644.877 573.214 646.407 573.318C652.604 573.739 659.718 574.883 664.893 578.682C669.86 582.328 673.406 588.704 671.917 600.557C670.41 612.549 663.751 629.93 648.367 655.036C628.141 687.225 611.741 711.243 597.48 726.445C583.281 741.583 571.78 747.369 561.153 744.805C556.577 741.58 554.511 735.896 556.167 726.681C557.866 717.223 563.445 704.512 573.609 688.24C581.972 674.851 593.737 659.184 604.198 645.254C609.498 638.197 614.462 631.586 618.481 625.942Z" fill="white" stroke="white" stroke-width="4"/>
<path d="M328.314 714.878L328.33 714.837L328.345 714.797C328.443 714.52 328.59 714.344 329.043 714.2C329.608 714.02 330.498 713.96 331.802 714.077C333.076 714.191 334.549 714.452 336.203 714.773C336.572 714.844 336.949 714.918 337.333 714.994C338.641 715.252 340.03 715.525 341.414 715.752C344.944 716.329 348.899 716.691 352.274 715.589C354.011 715.021 355.614 714.062 356.913 712.554C358.206 711.053 359.11 709.11 359.612 706.702C361.251 698.831 360.719 693.06 358.176 689.352C355.521 685.48 351.127 684.454 346.626 685.061C342.146 685.664 337.206 687.893 332.669 691.024C328.111 694.169 323.819 698.319 320.665 702.933L320.598 703.032L320.543 703.137C312.225 719.081 311.306 732.516 316.285 743.029C321.243 753.5 331.799 760.53 345.259 764.253C372.153 771.693 411.764 766.299 447.007 747.3C519.465 708.24 563.929 650.5 604.055 590.291C611.111 579.703 618.029 569.045 624.94 558.4C657.389 508.416 689.661 458.706 735.119 417.819L733.069 414.463C709.451 423.464 684.823 444.402 660.313 471.071C635.763 497.783 611.142 530.46 587.578 563.198C578.993 575.125 570.555 587.052 562.309 598.706C547.887 619.089 534.055 638.639 521.061 655.901C500.615 683.063 482.5 704.199 467.739 713.878C412.987 745.796 374.507 753.601 351.647 749.585C340.253 747.584 332.918 742.69 329.178 736.587C325.45 730.502 325.078 722.864 328.314 714.878Z" fill="white" stroke="white" stroke-width="4"/>
<path d="M58.1253 701.717L58.1938 701.649L58.2554 701.575C60.7965 698.51 61.6643 695.273 60.8916 692.139C60.1457 689.113 57.9615 686.564 55.2079 684.552C49.7039 680.53 41.1212 678.047 33.0294 677.975C25.007 677.903 16.7175 680.217 12.5726 686.687C8.37267 693.243 9.03394 703.08 16.6092 716.565C32.2257 744.363 54.4951 760.163 80.5466 765.711C106.527 771.245 136.07 766.546 166.289 753.773C226.697 728.24 290.376 670.218 335.04 595.132C350.044 573.868 364.076 553.806 377.323 534.866C445.996 436.679 493.566 368.664 546.193 319.754C645.494 313.545 701.135 305.81 730.93 298.402C745.797 294.706 754.509 291.028 758.968 287.468C761.215 285.673 762.631 283.71 762.938 281.561C763.255 279.35 762.331 277.452 761.006 275.983L759.521 277.323L761.006 275.983C760.5 275.422 760.178 274.995 759.949 274.676C759.913 274.626 759.862 274.555 759.81 274.482C759.739 274.381 759.664 274.275 759.618 274.212C759.525 274.086 759.357 273.858 759.137 273.653C758.888 273.42 758.47 273.119 757.872 273.027C757.308 272.94 756.847 273.082 756.592 273.182C756.344 273.279 756.115 273.407 755.967 273.492C755.911 273.524 755.804 273.587 755.694 273.651C755.592 273.71 755.488 273.771 755.422 273.809C753.925 274.671 749.763 276.883 737.065 279.426C711.595 284.527 652.262 290.872 512.453 290.644C424.737 290.5 334.539 320.635 270.547 362.87C238.552 383.986 212.996 408.202 197.603 433.29C182.199 458.395 176.892 484.532 185.771 509.242C188.051 515.787 192.846 520.134 199.316 522.534C205.718 524.909 213.758 525.389 222.758 524.372C240.77 522.336 263.249 514.233 285.732 502.035C308.238 489.825 330.887 473.434 349.223 454.693C367.541 435.971 381.675 414.777 386.927 392.945L383.258 391.466C365.62 421.548 323.573 457.845 283.653 481.774C263.708 493.73 244.479 502.485 229.273 505.856C221.661 507.543 215.229 507.842 210.278 506.652C205.432 505.488 202.038 502.919 200.18 498.727C198.079 493.262 197.818 486.073 199.59 477.574C201.363 469.072 205.145 459.395 210.953 449.086C222.567 428.472 242.186 405.506 269.589 384.618C323.6 343.446 407.752 310.42 520.047 319.387C476.798 356.33 437.239 404.218 399.222 455.283C380.22 480.808 361.585 507.151 343.062 533.337L341.454 535.611C322.396 562.552 303.448 589.296 284.302 614.824C234.652 681.025 182.478 726.067 137.711 744.501C115.343 753.712 94.9893 756.216 77.7645 751.596C60.6029 746.993 46.27 735.246 36.0079 715.373C35.5868 714.558 35.5415 714.114 35.5562 713.917C35.5658 713.788 35.6035 713.647 35.8401 713.418C36.1224 713.146 36.6182 712.826 37.4403 712.454C38.2489 712.089 39.2379 711.732 40.4251 711.326C40.7359 711.219 41.0575 711.11 41.3889 710.998C46.0339 709.427 52.5994 707.205 58.1253 701.717Z" fill="white" stroke="white" stroke-width="4"/>
<path d="M12 833L782 833" stroke="white" stroke-width="24" stroke-linecap="round"/>
</g>
</g>
<defs>
<filter id="filter0_d_761_517" x="-4.5" y="271" width="803" height="597.5" filterUnits="userSpaceOnUse" color-interpolation-filters="sRGB">
<feFlood flood-opacity="0" result="BackgroundImageFix"/>
<feColorMatrix in="SourceAlpha" type="matrix" values="0 0 0 0 0 0 0 0 0 0 0 0 0 0 0 0 0 0 127 0" result="hardAlpha"/>
<feOffset dy="19"/>
<feGaussianBlur stdDeviation="2.25"/>
<feComposite in2="hardAlpha" operator="out"/>
<feColorMatrix type="matrix" values="0 0 0 0 0 0 0 0 0 0 0 0 0 0 0 0 0 0 0.25 0"/>
<feBlend mode="normal" in2="BackgroundImageFix" result="effect1_dropShadow_761_517"/>
<feBlend mode="normal" in="SourceGraphic" in2="effect1_dropShadow_761_517" result="shape"/>
</filter>
<clipPath id="clip0_761_517">
<rect width="793.701" height="1122.52" fill="white"/>
</clipPath>
</defs>
</svg>
